<svg width="209" height="209" viewBox="0 0 209 209" fill="none" xmlns="http://www.w3.org/2000/svg">
<ellipse cx="113.338" cy="107.097" rx="81.747" ry="81.4583" fill="#FDFF00"/>
<path fill-rule="evenodd" clip-rule="evenodd" d="M180.303 32.4549C175.757 31.7795 171.105 31.4295 166.371 31.4295C114.64 31.4295 72.7036 73.2176 72.7036 124.766C72.7036 157.933 90.0651 187.06 116.226 203.615C112.663 203.988 109.045 204.18 105.383 204.18C48.8004 204.18 2.93115 158.473 2.93115 102.09C2.93115 45.7072 48.8004 0 105.383 0C134.956 0 161.602 12.4854 180.303 32.4549Z" fill="#9CFF2E"/>
<path fill-rule="evenodd" clip-rule="evenodd" d="M209.001 116.983C193.063 140.579 166.012 156.101 135.322 156.101C86.3074 156.101 46.573 116.507 46.573 67.6655C46.573 43.1837 56.5563 21.0253 72.6875 5.01221C30.5136 18.5485 0 57.9732 0 104.5C0 162.214 46.9522 209 104.871 209C158.55 209 202.809 168.812 209.001 116.983Z" fill="#38E54D"/>
</svg>
